<?xml version="1.0" standalone="yes"?>
<svg xmlns="http://www.w3.org/2000/svg" width="200" height="200">
<path style="fill:#010101; stroke:none;" d="M0 0L0 32C2.27647 27.818 3.41368 23.1368 5.9267 19C11.5242 9.78575 21.2397 2.61284 32 1C28.3013 -0.552017 23.9828 0 20 0L0 0z"/>
<path style="fill:#1b2747; stroke:none;" d="M32 0.464508C17.7157 3.03993 6.24504 13.277 1.74923 27C-2.15249 38.9096 0 53.5956 0 66L0 143C0 158.145 -1.60693 173.082 7.92747 185.996C18.6547 200.525 33.8134 200 50 200L133 200C145.586 200 160.72 202.289 173 199.471C185.418 196.621 196.621 185.418 199.471 173C202.152 161.316 200 146.972 200 135L200 58C200 42.6555 202.464 26.8536 192.319 14.0147C181.272 0.0336761 165.143 0 149 0L71 0C58.4416 0 44.37 -1.76576 32 0.464508z"/>
<path style="fill:#010101; stroke:none;" d="M169 0C172.837 2.08871 177.153 3.14482 181 5.33797C189.689 10.2915 196.23 18.3836 199 28C202.21 20.3512 200 8.28781 200 0L169 0z"/>
<path style="fill:#dfe7fb; stroke:none;" d="M41.1481 39.0278C37.1212 41.4121 38.0003 47.0338 38 51L38 81C38 84.7804 36.9728 90.5598 39.6034 93.6821C42.3978 96.9987 48.1605 96 52 96L80 96C83.8109 96 89.436 96.9948 92.8519 94.9722C96.8788 92.5879 95.9997 86.9662 96 83L96 53C96 49.2196 97.0273 43.4402 94.3966 40.3179C91.6022 37.0013 85.8395 38 82 38L54 38C50.189 38 44.5641 37.0052 41.1481 39.0278z"/>
<path style="fill:#d1ddf9; stroke:none;" d="M108.148 39.0278C104.121 41.4121 105 47.0338 105 51L105 81C105 84.7804 103.973 90.5598 106.603 93.6821C109.398 96.9987 115.16 96 119 96L147 96C150.811 96 156.436 96.9948 159.852 94.9722C163.879 92.5879 163 86.9662 163 83L163 53C163 49.2196 164.027 43.4402 161.397 40.3179C158.602 37.0013 152.84 38 149 38L121 38C117.189 38 111.564 37.0052 108.148 39.0278M41.1481 106.028C37.1212 108.412 38.0003 114.034 38 118L38 148C38 151.78 36.9728 157.56 39.6034 160.682C42.3977 163.999 48.1605 163 52 163L80 163C83.8109 163 89.436 163.995 92.8519 161.972C96.8788 159.588 95.9997 153.966 96 150L96 120C96 116.22 97.0272 110.44 94.3966 107.318C91.6023 104.001 85.8395 105 82 105L54 105C50.1891 105 44.564 104.005 41.1481 106.028z"/>
<path style="fill:#b1c5f5; stroke:none;" d="M108.148 106.028C104.121 108.412 105 114.034 105 118L105 148C105 151.78 103.973 157.56 106.603 160.682C109.398 163.999 115.16 163 119 163L147 163C150.811 163 156.436 163.995 159.852 161.972C163.879 159.588 163 153.966 163 150L163 120C163 116.22 164.027 110.44 161.397 107.318C158.602 104.001 152.84 105 149 105L121 105C117.189 105 111.564 104.005 108.148 106.028z"/>
<path style="fill:#010101; stroke:none;" d="M0 169L0 200L28 200C22.3158 196.176 16.0705 193.999 11.1736 188.91C5.4913 183.004 3.75284 175.894 0 169M199 173C195.418 185.433 185.433 195.418 173 199C180.409 202.109 191.975 200 200 200C200 191.975 202.109 180.409 199 173z"/>
</svg>
